# xmcd CD database file
#
# Track frame offsets:
#	150
#	14575
#	30861
#	38604
#	53171
#	63177
#	76010
#	91987
#	103535
#	114509
#	129006
#	139243
#	152445
#	169934
#
# Disc length: 2567 seconds
#
# Revision: 1
# Processed by: cddbd v1.4PL0 Copyright (c) Steve Scherf et al.
# Submitted via: CDex 1.50Beta7
#
DISCID=9b0a050e
DTITLE=Doc and Merle Watson - Home Sweet Home
DYEAR=1998
DGENRE=
TTITLE0=John Henry
TTITLE1=Girl in the Velvet Band
TTITLE2=Lonesome Banjo
TTITLE3=Listening to the Rain
TTITLE4=Russian Grass
TTITLE5=Worried Blues
TTITLE6=Train That Carried My Girl From Town
TTITLE7=Old Joe Clark
TTITLE8=Down the Road
TTITLE9=Big Spike Hammer
TTITLE10=Reuben's Train
TTITLE11=Little Maggie
TTITLE12=I Wonder How the Old Folks Are at Home
TTITLE13=Home Sweet Home
EXTD=YEAR: 1998
EXTT0=
EXTT1=
EXTT2=
EXTT3=
EXTT4=
EXTT5=
EXTT6=
EXTT7=
EXTT8=
EXTT9=
EXTT10=
EXTT11=
EXTT12=
EXTT13=
PLAYORDER=
